<mxfile host="app.diagrams.net" modified="2023-04-25T22:21:13.763Z" agent="Mozilla/5.0 (Windows NT 10.0; Win64; x64) AppleWebKit/537.36 (KHTML, like Gecko) Chrome/112.0.0.0 Safari/537.36" etag="WwuEtDiQBvu2plQE0hyf" version="21.1.9" type="device">
  <diagram id="C5RBs43oDa-KdzZeNtuy" name="Page-1">
    <mxGraphModel dx="2567" dy="1999" grid="1" gridSize="10" guides="1" tooltips="1" connect="1" arrows="1" fold="1" page="1" pageScale="1" pageWidth="827" pageHeight="1169" math="0" shadow="0">
      <root>
        <mxCell id="WIyWlLk6GJQsqaUBKTNV-0" />
        <mxCell id="WIyWlLk6GJQsqaUBKTNV-1" parent="WIyWlLk6GJQsqaUBKTNV-0" />
        <mxCell id="oGAfYGbOqRxPfBZGMADc-13" style="edgeStyle=orthogonalEdgeStyle;rounded=0;orthogonalLoop=1;jettySize=auto;html=1;entryX=1;entryY=0.5;entryDx=0;entryDy=0;" edge="1" parent="WIyWlLk6GJQsqaUBKTNV-1" source="RRD0dqJXShHXalJwmmNb-13" target="fGnD7HJOfegd4VfzZDPR-12">
          <mxGeometry relative="1" as="geometry" />
        </mxCell>
        <mxCell id="RRD0dqJXShHXalJwmmNb-13" value="Cidades" style="rounded=0;whiteSpace=wrap;html=1;" parent="WIyWlLk6GJQsqaUBKTNV-1" vertex="1">
          <mxGeometry x="-40" y="-820" width="120" height="60" as="geometry" />
        </mxCell>
        <mxCell id="oGAfYGbOqRxPfBZGMADc-12" style="edgeStyle=orthogonalEdgeStyle;rounded=0;orthogonalLoop=1;jettySize=auto;html=1;entryX=0;entryY=0.5;entryDx=0;entryDy=0;" edge="1" parent="WIyWlLk6GJQsqaUBKTNV-1" source="RRD0dqJXShHXalJwmmNb-14" target="fGnD7HJOfegd4VfzZDPR-12">
          <mxGeometry relative="1" as="geometry" />
        </mxCell>
        <mxCell id="RRD0dqJXShHXalJwmmNb-14" value="UF" style="rounded=0;whiteSpace=wrap;html=1;" parent="WIyWlLk6GJQsqaUBKTNV-1" vertex="1">
          <mxGeometry x="-370" y="-820" width="120" height="60" as="geometry" />
        </mxCell>
        <mxCell id="RRD0dqJXShHXalJwmmNb-15" value="Candidatura" style="rounded=0;whiteSpace=wrap;html=1;" parent="WIyWlLk6GJQsqaUBKTNV-1" vertex="1">
          <mxGeometry x="-240" y="-540" width="120" height="60" as="geometry" />
        </mxCell>
        <mxCell id="RRD0dqJXShHXalJwmmNb-16" value="Habilidades" style="rounded=0;whiteSpace=wrap;html=1;" parent="WIyWlLk6GJQsqaUBKTNV-1" vertex="1">
          <mxGeometry x="294" y="-420" width="120" height="60" as="geometry" />
        </mxCell>
        <mxCell id="RRD0dqJXShHXalJwmmNb-17" value="Vagas" style="rounded=0;whiteSpace=wrap;html=1;" parent="WIyWlLk6GJQsqaUBKTNV-1" vertex="1">
          <mxGeometry x="120" y="-340" width="120" height="60" as="geometry" />
        </mxCell>
        <mxCell id="fGnD7HJOfegd4VfzZDPR-1" style="edgeStyle=orthogonalEdgeStyle;rounded=0;orthogonalLoop=1;jettySize=auto;html=1;exitX=1;exitY=0.5;exitDx=0;exitDy=0;entryX=0;entryY=0.5;entryDx=0;entryDy=0;" parent="WIyWlLk6GJQsqaUBKTNV-1" source="RRD0dqJXShHXalJwmmNb-18" target="RRD0dqJXShHXalJwmmNb-20" edge="1">
          <mxGeometry relative="1" as="geometry" />
        </mxCell>
        <mxCell id="fGnD7HJOfegd4VfzZDPR-9" style="edgeStyle=orthogonalEdgeStyle;rounded=0;orthogonalLoop=1;jettySize=auto;html=1;entryX=0.5;entryY=1;entryDx=0;entryDy=0;" parent="WIyWlLk6GJQsqaUBKTNV-1" source="RRD0dqJXShHXalJwmmNb-18" target="fGnD7HJOfegd4VfzZDPR-0" edge="1">
          <mxGeometry relative="1" as="geometry" />
        </mxCell>
        <mxCell id="RRD0dqJXShHXalJwmmNb-18" value="Empresa" style="rounded=0;whiteSpace=wrap;html=1;" parent="WIyWlLk6GJQsqaUBKTNV-1" vertex="1">
          <mxGeometry x="-240" y="-340" width="120" height="60" as="geometry" />
        </mxCell>
        <mxCell id="fGnD7HJOfegd4VfzZDPR-3" style="edgeStyle=orthogonalEdgeStyle;rounded=0;orthogonalLoop=1;jettySize=auto;html=1;entryX=0.5;entryY=0;entryDx=0;entryDy=0;" parent="WIyWlLk6GJQsqaUBKTNV-1" source="RRD0dqJXShHXalJwmmNb-19" target="RRD0dqJXShHXalJwmmNb-21" edge="1">
          <mxGeometry relative="1" as="geometry" />
        </mxCell>
        <mxCell id="fGnD7HJOfegd4VfzZDPR-7" style="edgeStyle=orthogonalEdgeStyle;rounded=0;orthogonalLoop=1;jettySize=auto;html=1;" parent="WIyWlLk6GJQsqaUBKTNV-1" source="RRD0dqJXShHXalJwmmNb-19" target="RRD0dqJXShHXalJwmmNb-23" edge="1">
          <mxGeometry relative="1" as="geometry" />
        </mxCell>
        <mxCell id="oGAfYGbOqRxPfBZGMADc-8" style="edgeStyle=orthogonalEdgeStyle;rounded=0;orthogonalLoop=1;jettySize=auto;html=1;" edge="1" parent="WIyWlLk6GJQsqaUBKTNV-1" source="RRD0dqJXShHXalJwmmNb-19" target="oGAfYGbOqRxPfBZGMADc-9">
          <mxGeometry relative="1" as="geometry">
            <mxPoint x="180" y="-640" as="targetPoint" />
            <Array as="points">
              <mxPoint x="190" y="-620" />
              <mxPoint x="190" y="-620" />
            </Array>
          </mxGeometry>
        </mxCell>
        <mxCell id="RRD0dqJXShHXalJwmmNb-19" value="Usuário" style="rounded=0;whiteSpace=wrap;html=1;" parent="WIyWlLk6GJQsqaUBKTNV-1" vertex="1">
          <mxGeometry x="120" y="-540" width="120" height="60" as="geometry" />
        </mxCell>
        <mxCell id="fGnD7HJOfegd4VfzZDPR-2" style="edgeStyle=orthogonalEdgeStyle;rounded=0;orthogonalLoop=1;jettySize=auto;html=1;entryX=0;entryY=0.5;entryDx=0;entryDy=0;" parent="WIyWlLk6GJQsqaUBKTNV-1" source="RRD0dqJXShHXalJwmmNb-20" target="RRD0dqJXShHXalJwmmNb-17" edge="1">
          <mxGeometry relative="1" as="geometry" />
        </mxCell>
        <mxCell id="RRD0dqJXShHXalJwmmNb-20" value="posta" style="rhombus;whiteSpace=wrap;html=1;" parent="WIyWlLk6GJQsqaUBKTNV-1" vertex="1">
          <mxGeometry x="-40" y="-350" width="80" height="80" as="geometry" />
        </mxCell>
        <mxCell id="fGnD7HJOfegd4VfzZDPR-4" style="edgeStyle=orthogonalEdgeStyle;rounded=0;orthogonalLoop=1;jettySize=auto;html=1;exitX=0.5;exitY=1;exitDx=0;exitDy=0;entryX=0.5;entryY=0;entryDx=0;entryDy=0;" parent="WIyWlLk6GJQsqaUBKTNV-1" source="RRD0dqJXShHXalJwmmNb-21" target="RRD0dqJXShHXalJwmmNb-17" edge="1">
          <mxGeometry relative="1" as="geometry" />
        </mxCell>
        <mxCell id="RRD0dqJXShHXalJwmmNb-21" value="visualiza" style="rhombus;whiteSpace=wrap;html=1;" parent="WIyWlLk6GJQsqaUBKTNV-1" vertex="1">
          <mxGeometry x="140" y="-450" width="80" height="80" as="geometry" />
        </mxCell>
        <mxCell id="oGAfYGbOqRxPfBZGMADc-7" style="edgeStyle=orthogonalEdgeStyle;rounded=0;orthogonalLoop=1;jettySize=auto;html=1;entryX=0.5;entryY=0;entryDx=0;entryDy=0;" edge="1" parent="WIyWlLk6GJQsqaUBKTNV-1" source="RRD0dqJXShHXalJwmmNb-22" target="RRD0dqJXShHXalJwmmNb-16">
          <mxGeometry relative="1" as="geometry" />
        </mxCell>
        <mxCell id="RRD0dqJXShHXalJwmmNb-22" value="armazenadas" style="rhombus;whiteSpace=wrap;html=1;" parent="WIyWlLk6GJQsqaUBKTNV-1" vertex="1">
          <mxGeometry x="314" y="-560" width="80" height="80" as="geometry" />
        </mxCell>
        <mxCell id="fGnD7HJOfegd4VfzZDPR-8" style="edgeStyle=orthogonalEdgeStyle;rounded=0;orthogonalLoop=1;jettySize=auto;html=1;entryX=1;entryY=0.5;entryDx=0;entryDy=0;" parent="WIyWlLk6GJQsqaUBKTNV-1" source="RRD0dqJXShHXalJwmmNb-23" target="RRD0dqJXShHXalJwmmNb-15" edge="1">
          <mxGeometry relative="1" as="geometry" />
        </mxCell>
        <mxCell id="RRD0dqJXShHXalJwmmNb-23" value="efetua" style="rhombus;whiteSpace=wrap;html=1;" parent="WIyWlLk6GJQsqaUBKTNV-1" vertex="1">
          <mxGeometry x="-40" y="-550" width="80" height="80" as="geometry" />
        </mxCell>
        <mxCell id="fGnD7HJOfegd4VfzZDPR-10" style="edgeStyle=orthogonalEdgeStyle;rounded=0;orthogonalLoop=1;jettySize=auto;html=1;entryX=0.5;entryY=1;entryDx=0;entryDy=0;" parent="WIyWlLk6GJQsqaUBKTNV-1" source="fGnD7HJOfegd4VfzZDPR-0" target="RRD0dqJXShHXalJwmmNb-15" edge="1">
          <mxGeometry relative="1" as="geometry" />
        </mxCell>
        <mxCell id="fGnD7HJOfegd4VfzZDPR-0" value="visualiza" style="rhombus;whiteSpace=wrap;html=1;" parent="WIyWlLk6GJQsqaUBKTNV-1" vertex="1">
          <mxGeometry x="-220" y="-450" width="80" height="80" as="geometry" />
        </mxCell>
        <mxCell id="oGAfYGbOqRxPfBZGMADc-14" style="edgeStyle=orthogonalEdgeStyle;rounded=0;orthogonalLoop=1;jettySize=auto;html=1;entryX=0.15;entryY=-0.067;entryDx=0;entryDy=0;entryPerimeter=0;" edge="1" parent="WIyWlLk6GJQsqaUBKTNV-1" source="fGnD7HJOfegd4VfzZDPR-12" target="RRD0dqJXShHXalJwmmNb-19">
          <mxGeometry relative="1" as="geometry">
            <Array as="points">
              <mxPoint x="-150" y="-660" />
              <mxPoint x="138" y="-660" />
            </Array>
          </mxGeometry>
        </mxCell>
        <mxCell id="oGAfYGbOqRxPfBZGMADc-15" style="edgeStyle=orthogonalEdgeStyle;rounded=0;orthogonalLoop=1;jettySize=auto;html=1;entryX=0;entryY=0.5;entryDx=0;entryDy=0;" edge="1" parent="WIyWlLk6GJQsqaUBKTNV-1" source="fGnD7HJOfegd4VfzZDPR-12" target="RRD0dqJXShHXalJwmmNb-18">
          <mxGeometry relative="1" as="geometry">
            <Array as="points">
              <mxPoint x="-150" y="-580" />
              <mxPoint x="-260" y="-580" />
              <mxPoint x="-260" y="-310" />
            </Array>
          </mxGeometry>
        </mxCell>
        <mxCell id="fGnD7HJOfegd4VfzZDPR-12" value="liga até a mãe" style="rhombus;whiteSpace=wrap;html=1;" parent="WIyWlLk6GJQsqaUBKTNV-1" vertex="1">
          <mxGeometry x="-200" y="-830" width="100" height="80" as="geometry" />
        </mxCell>
        <mxCell id="oGAfYGbOqRxPfBZGMADc-6" style="edgeStyle=orthogonalEdgeStyle;rounded=0;orthogonalLoop=1;jettySize=auto;html=1;" edge="1" parent="WIyWlLk6GJQsqaUBKTNV-1" source="oGAfYGbOqRxPfBZGMADc-2" target="RRD0dqJXShHXalJwmmNb-22">
          <mxGeometry relative="1" as="geometry" />
        </mxCell>
        <mxCell id="oGAfYGbOqRxPfBZGMADc-2" value="HabiliUsuario" style="rounded=0;whiteSpace=wrap;html=1;" vertex="1" parent="WIyWlLk6GJQsqaUBKTNV-1">
          <mxGeometry x="294" y="-710" width="120" height="60" as="geometry" />
        </mxCell>
        <mxCell id="oGAfYGbOqRxPfBZGMADc-10" style="edgeStyle=orthogonalEdgeStyle;rounded=0;orthogonalLoop=1;jettySize=auto;html=1;entryX=0;entryY=0.5;entryDx=0;entryDy=0;" edge="1" parent="WIyWlLk6GJQsqaUBKTNV-1" source="oGAfYGbOqRxPfBZGMADc-9" target="oGAfYGbOqRxPfBZGMADc-2">
          <mxGeometry relative="1" as="geometry" />
        </mxCell>
        <mxCell id="oGAfYGbOqRxPfBZGMADc-9" value="tem" style="rhombus;whiteSpace=wrap;html=1;" vertex="1" parent="WIyWlLk6GJQsqaUBKTNV-1">
          <mxGeometry x="150" y="-720" width="80" height="80" as="geometry" />
        </mxCell>
      </root>
    </mxGraphModel>
  </diagram>
</mxfile>
